# xmcd
#
# Track frame offsets: 
#        150
#        13570
#        30247
#        50575
#        66790
#        84437
#        108290
#        123125
#        138390
#        162775
#
# Disc length: 2411 seconds
#
# Revision: 5
# Processed by: cddbd v1.5.2PL0 Copyright (c) Steve Scherf et al.
# Submitted via: ExactAudioCopy v0.99pb3
#
DISCID=7109690a
DTITLE=Lonnie Brooks - Wound Up Tight
DYEAR=1986
DGENRE=Blues
TTITLE0=Got Lucky Last Night
TTITLE1=Jealous Man
TTITLE2=Belly Rubbin' Music
TTITLE3=Bewitched
TTITLE4=End Of The Rope
TTITLE5=Wound Up Tight
TTITLE6=Boomerang
TTITLE7=Musta' Been Dreamin'
TTITLE8=Skid Row
TTITLE9=Hush Mouth Money
EXTD=
EXTT0=
EXTT1=
EXTT2=
EXTT3=
EXTT4=
EXTT5=
EXTT6=
EXTT7=
EXTT8=
EXTT9=
PLAYORDER=
